# xmcd
#
# Track frame offsets:
#	150
#	16982
#	37105
#	59892
#	77872
#	94307
#	110075
#	129202
#	146240
#	166250
#	187192
#	201455
#
# Disc length: 2918 seconds
#
# Revision: 3
# Processed by: cddbd v1.5.2PL0 Copyright (c) Steve Scherf et al.
# Submitted via: EasyCDDAExtractor 16.0.9.1
#
DISCID=ba0b640c
DTITLE=Thalia - Arrasando
DYEAR=2000
DGENRE=Latin
TTITLE0=Entre El Mar Y Una Estrella
TTITLE1=Regresa A Mi
TTITLE2=Reencarnacion
TTITLE3=Arrasando
TTITLE4=No Hay Que Llorar
TTITLE5=Quiero Amarte
TTITLE6=Suerte En Mi
TTITLE7=Menta Y Canela
TTITLE8=Tumba La Casa
TTITLE9=Pata Pata
TTITLE10=Siempre Hay Cariño
TTITLE11=Rosalinda
EXTD=
EXTT0=
EXTT1=
EXTT2=
EXTT3=
EXTT4=
EXTT5=
EXTT6=
EXTT7=
EXTT8=
EXTT9=
EXTT10=
EXTT11=
PLAYORDER=
